<svg width="144" height="144" viewBox="0 0 144 144" fill="none" xmlns="http://www.w3.org/2000/svg">
<path d="M81.2281 134.634C81.8909 139.002 85.9872 142.05 90.2545 140.905C103.875 137.25 116.179 129.637 125.557 118.947C136.703 106.243 143.001 90.01 143.339 73.1136C143.678 56.2172 138.036 39.7445 127.409 26.6042C118.466 15.5468 106.477 7.44753 93.0139 3.24954C88.7959 1.93434 84.5807 4.8157 83.7434 9.15392L81.8857 18.78C81.0484 23.1182 83.9262 27.2492 88.0533 28.8265C95.562 31.6962 102.232 36.5077 107.345 42.8305C114.147 51.2402 117.758 61.7827 117.541 72.5964C117.324 83.4101 113.293 93.7994 106.16 101.93C100.798 108.043 93.9406 112.583 86.323 115.149C82.1359 116.56 79.0949 120.572 79.7576 124.941L81.2281 134.634Z" fill="#A63AE6"/>
<path d="M34.9491 19.6596C32.4008 16.0503 27.3732 15.159 24.0702 18.0936C16.7901 24.5616 10.9032 32.4472 6.77137 41.2655C4.89677 45.2664 7.18039 49.8332 11.3652 51.2505L20.6507 54.3954C24.8355 55.8127 29.3184 53.5212 31.4403 49.6458C33.5047 45.8756 36.0892 42.4137 39.1171 39.3628C42.2294 36.2267 43.1521 31.2775 40.6037 27.6682L34.9491 19.6596Z" fill="#D095F0"/>
<path d="M80.3342 8.59145C80.9349 4.21419 77.8687 0.13148 73.4518 0.0220136C61.7485 -0.268033 50.1482 2.31436 39.6732 7.54159C35.7198 9.5144 34.6751 14.5122 37.0759 18.2213L42.403 26.4513C44.8039 30.1604 49.7409 31.1469 53.8103 29.4261C58.9227 27.2643 64.3865 26.0479 69.9332 25.8369C74.3483 25.6689 78.4006 22.6813 79.0013 18.3041L80.3342 8.59145Z" fill="#FF6FAA"/>
<path d="M29.2779 119.186C26.336 122.482 26.6009 127.581 30.2045 130.137C35.8714 134.158 42.1046 137.341 48.7133 139.576C55.3219 141.811 62.2077 143.065 69.1515 143.309C73.567 143.465 76.8724 139.574 76.5353 135.168L75.7873 125.393C75.4502 120.988 71.5845 117.762 67.1875 117.33C63.7211 116.989 60.2961 116.254 56.9802 115.132C53.6642 114.011 50.496 112.516 47.5343 110.683C43.7774 108.358 38.7475 108.575 35.8056 111.871L29.2779 119.186Z" fill="#FFCC33"/>
<path d="M10.5094 53.9774C6.2652 52.7492 1.78163 55.1921 1.03389 59.5466C-0.684022 69.551 -0.262322 79.8381 2.30833 89.7209C4.87899 99.6036 9.52325 108.792 15.8982 116.692C18.673 120.13 23.7786 120.079 26.8864 116.938L33.7823 109.97C36.8902 106.829 36.7949 101.796 34.2414 98.1899C31.0482 93.6813 28.6829 88.6144 27.281 83.2251C25.8792 77.8358 25.4758 72.2586 26.0674 66.7655C26.5404 62.3726 24.1709 57.9305 19.9267 56.7024L10.5094 53.9774Z" fill="#008000"/>
</svg>
